{"glyphs":{"0":{"ha":938,"x_min":126,"x_max":913,"o":"m 828 86 l 657 -7 l 278 -7 l 126 86 l 211 886 l 382 979 l 761 979 l 913 886 l 828 86 m 397 813 l 329 160 l 642 160 l 710 813 l 397 813 z "},"1":{"ha":806,"x_min":118,"x_max":774,"o":"m 185 647 l 204 829 l 469 972 l 636 972 l 551 167 l 774 167 l 757 0 l 118 0 l 135 167 l 357 167 l 421 775 l 185 647 z "},"2":{"ha":889,"x_min":118,"x_max":863,"o":"m 329 167 l 788 167 l 771 0 l 118 0 l 165 457 l 336 550 l 633 550 l 660 806 l 396 806 l 383 681 l 189 681 l 210 879 l 381 972 l 711 972 l 863 879 l 821 476 l 650 383 l 353 383 l 329 167 z "},"3":{"ha":918,"x_min":126,"x_max":893,"o":"m 638 -7 l 278 -7 l 126 86 l 147 285 l 342 285 l 329 160 l 622 160 l 649 419 l 406 419 l 424 586 l 667 586 l 690 813 l 397 813 l 385 688 l 190 688 l 211 886 l 382 979 l 742 979 l 893 886 l 860 574 l 732 504 l 731 501 l 844 432 l 808 86 l 638 -7 z "},"4":{"ha":883,"x_min":71,"x_max":860,"o":"m 724 215 l 701 0 l 510 0 l 532 215 l 71 215 l 85 354 l 632 972 l 803 972 l 740 372 l 860 372 l 843 215 l 724 215 m 303 372 l 549 372 l 581 686 l 578 686 l 303 375 l 303 372 z "},"5":{"ha":910,"x_min":126,"x_max":879,"o":"m 424 806 l 404 619 l 694 619 l 846 526 l 800 86 l 629 -7 l 278 -7 l 126 86 l 147 285 l 342 285 l 329 160 l 614 160 l 644 453 l 193 453 l 247 972 l 879 972 l 861 806 l 424 806 z "},"6":{"ha":896,"x_min":126,"x_max":871,"o":"m 397 813 l 368 533 l 472 590 l 678 590 l 829 497 l 786 86 l 615 -7 l 278 -7 l 126 86 l 211 886 l 382 979 l 719 979 l 871 886 l 850 688 l 656 688 l 668 813 l 397 813 m 357 424 l 329 160 l 600 160 l 628 424 l 357 424 z "},"7":{"ha":868,"x_min":147,"x_max":907,"o":"m 414 0 l 210 0 l 667 803 l 667 806 l 354 806 l 342 681 l 147 681 l 178 972 l 907 972 l 894 847 l 414 0 z "},"8":{"ha":910,"x_min":126,"x_max":885,"o":"m 329 160 l 614 160 l 640 419 l 356 419 l 329 160 m 374 586 l 658 586 l 682 813 l 397 813 l 374 586 m 629 -7 l 256 -7 l 126 86 l 163 432 l 290 501 l 292 504 l 178 574 l 211 886 l 382 979 l 733 979 l 885 886 l 851 574 l 724 504 l 722 501 l 836 432 l 800 86 l 629 -7 z "},"9":{"ha":896,"x_min":126,"x_max":871,"o":"m 600 160 l 629 439 l 524 382 l 318 382 l 167 475 l 211 886 l 382 979 l 719 979 l 871 886 l 786 86 l 615 -7 l 278 -7 l 126 86 l 147 285 l 342 285 l 329 160 l 600 160 m 640 549 l 668 813 l 397 813 l 369 549 l 640 549 z "}," ":{"ha":361,"x_min":0,"x_max":0,"o":""},"!":{"ha":528,"x_min":132,"x_max":489,"o":"m 132 0 l 158 264 l 422 264 l 396 0 l 132 0 m 222 400 l 250 1014 l 489 1014 l 389 400 l 222 400 z "},"\"":{"ha":694,"x_min":178,"x_max":710,"o":"m 178 581 l 196 1014 l 404 1014 l 331 581 l 178 581 m 483 581 l 501 1014 l 710 1014 l 636 581 l 483 581 z "},"#":{"ha":1061,"x_min":100,"x_max":1064,"o":"m 781 229 q 732 -26 768 146 l 560 -26 l 610 229 l 436 229 l 388 -26 l 215 -26 l 264 229 l 100 229 l 115 371 l 292 371 q 339 613 319 513 l 140 613 l 156 754 l 367 754 l 414 999 l 586 999 l 539 754 l 711 754 l 760 999 l 931 999 l 883 754 l 1064 754 l 1049 613 l 856 613 q 808 371 828 471 l 1024 371 l 1008 229 l 781 229 m 511 613 l 464 371 l 636 371 q 685 613 668 531 l 511 613 z "},"$":{"ha":910,"x_min":113,"x_max":885,"o":"m 525 -171 l 358 -171 l 375 -7 l 264 -7 l 113 86 l 132 271 l 326 271 l 315 160 l 614 160 l 639 400 l 321 400 l 169 493 l 211 886 l 382 979 l 479 979 l 496 1143 l 663 1143 l 646 979 l 733 979 l 885 886 l 865 701 l 671 701 l 682 813 l 397 813 l 372 581 l 690 581 l 842 488 l 800 86 l 629 -7 l 542 -7 l 525 -171 z "},"%":{"ha":1390,"x_min":165,"x_max":1326,"o":"m 672 589 l 501 496 l 317 496 l 165 589 l 197 893 l 368 986 l 553 986 l 704 893 l 672 589 m 358 832 l 340 650 l 511 650 l 529 832 l 358 832 m 1064 986 l 1244 986 l 426 -14 l 246 -14 l 1064 986 m 819 383 l 990 476 l 1175 476 l 1326 383 l 1293 79 l 1122 -14 l 938 -14 l 786 79 l 819 383 m 1132 140 l 1151 322 l 981 322 l 961 140 l 1132 140 z "},"&":{"ha":924,"x_min":126,"x_max":950,"o":"m 950 586 l 932 419 l 829 419 l 794 86 l 624 -7 l 278 -7 l 126 86 l 163 432 l 290 501 l 292 504 l 178 574 l 211 886 l 382 979 l 672 979 l 824 886 l 803 688 l 608 688 l 621 813 l 397 813 l 374 586 l 575 586 l 557 419 l 356 419 l 329 160 l 608 160 l 643 493 l 814 586 l 950 586 z "},"'":{"ha":389,"x_min":178,"x_max":404,"o":"m 178 581 l 196 1014 l 404 1014 l 331 581 l 178 581 z "},"(":{"ha":532,"x_min":99,"x_max":561,"o":"m 390 875 l 283 -139 l 440 -139 l 425 -278 l 249 -278 l 99 -185 l 214 921 l 385 1014 l 561 1014 l 547 875 l 390 875 z "},")":{"ha":532,"x_min":46,"x_max":510,"o":"m 218 -139 l 325 875 l 168 875 l 182 1014 l 358 1014 l 510 921 l 394 -185 l 222 -278 l 46 -278 l 61 -139 l 218 -139 z "},"*":{"ha":901,"x_min":174,"x_max":867,"o":"m 506 522 l 504 522 l 357 328 l 225 431 l 392 611 l 174 671 l 246 839 l 454 754 l 465 986 l 642 986 l 606 754 l 831 839 l 867 671 l 638 611 l 765 431 l 611 328 l 506 522 z "},"+":{"ha":847,"x_min":90,"x_max":832,"o":"m 110 454 l 378 454 l 406 722 l 592 722 l 564 454 l 832 454 l 813 268 l 544 268 l 517 0 l 331 0 l 358 268 l 90 268 l 110 454 z "},",":{"ha":528,"x_min":101,"x_max":422,"o":"m 101 -278 l 158 264 l 422 264 l 411 150 l 215 -278 l 101 -278 z "},"-":{"ha":622,"x_min":118,"x_max":579,"o":"m 118 275 l 138 451 l 579 451 l 560 275 l 118 275 z "},".":{"ha":528,"x_min":132,"x_max":422,"o":"m 132 0 l 158 264 l 422 264 l 396 0 l 132 0 z "},"/":{"ha":578,"x_min":31,"x_max":647,"o":"m 31 -28 l 467 1000 l 647 1000 l 211 -28 l 31 -28 z "},":":{"ha":528,"x_min":132,"x_max":471,"o":"m 132 0 l 158 264 l 422 264 l 396 0 l 132 0 m 179 458 l 207 722 l 471 722 l 443 458 l 179 458 z "},";":{"ha":528,"x_min":101,"x_max":471,"o":"m 101 -278 l 158 264 l 422 264 l 411 150 l 215 -278 l 101 -278 m 179 458 l 207 722 l 471 722 l 443 458 l 179 458 z "},"<":{"ha":917,"x_min":101,"x_max":871,"o":"m 871 696 l 851 510 l 342 349 l 342 346 l 817 185 l 797 -1 l 101 249 l 122 446 l 871 696 z "},"=":{"ha":958,"x_min":128,"x_max":901,"o":"m 868 275 l 850 103 l 128 103 l 146 275 l 868 275 m 901 592 l 883 419 l 161 419 l 179 592 l 901 592 z "},">":{"ha":917,"x_min":117,"x_max":886,"o":"m 171 510 l 190 696 l 886 446 l 865 249 l 117 -1 l 136 185 l 647 346 l 647 349 l 171 510 z "},"?":{"ha":819,"x_min":193,"x_max":797,"o":"m 494 522 l 469 400 l 317 400 l 324 596 l 494 689 l 579 689 l 596 847 l 401 847 l 388 722 l 193 722 l 214 921 l 385 1014 l 646 1014 l 797 921 l 765 615 l 594 522 l 494 522 m 219 0 l 246 264 l 510 264 l 483 0 l 219 0 z "},"@":{"ha":1417,"x_min":107,"x_max":1392,"o":"m 1117 -196 l 258 -196 l 107 -103 l 211 886 l 382 979 l 1240 979 l 1392 886 l 1313 144 l 1142 51 l 850 51 l 765 108 l 653 51 l 540 51 l 399 144 l 507 653 l 688 746 l 800 746 l 886 689 l 997 746 l 1089 746 l 975 204 l 1139 204 l 1204 826 l 385 826 l 293 -43 l 1132 -43 l 1117 -196 m 682 583 l 606 214 l 788 214 l 864 583 l 682 583 z "},"A":{"ha":936,"x_min":21,"x_max":915,"o":"m 669 972 l 915 0 l 724 0 l 671 210 l 307 210 l 213 0 l 21 0 l 469 972 l 669 972 m 543 728 l 383 376 l 629 376 l 546 728 l 543 728 z "},"B":{"ha":924,"x_min":118,"x_max":897,"o":"m 865 574 l 738 504 l 736 501 l 850 432 l 815 93 l 644 0 l 118 0 l 219 972 l 746 972 l 897 879 l 865 574 m 356 419 l 329 167 l 628 167 l 654 419 l 356 419 m 396 806 l 374 586 l 672 586 l 694 806 l 396 806 z "},"C":{"ha":938,"x_min":126,"x_max":926,"o":"m 668 285 l 863 285 l 842 86 l 671 -7 l 278 -7 l 126 86 l 211 886 l 382 979 l 775 979 l 926 886 l 906 688 l 711 688 l 724 813 l 397 813 l 329 160 l 656 160 l 668 285 z "},"D":{"ha":993,"x_min":118,"x_max":967,"o":"m 885 93 l 714 0 l 118 0 l 219 972 l 815 972 l 967 879 l 885 93 m 396 806 l 329 167 l 697 167 l 764 806 l 396 806 z "},"E":{"ha":763,"x_min":118,"x_max":801,"o":"m 356 417 l 329 167 l 717 167 l 700 0 l 118 0 l 219 972 l 801 972 l 783 806 l 396 806 l 374 583 l 678 583 l 660 417 l 356 417 z "},"F":{"ha":749,"x_min":118,"x_max":815,"o":"m 356 417 l 313 0 l 118 0 l 219 972 l 815 972 l 797 806 l 396 806 l 374 583 l 692 583 l 674 417 l 356 417 z "},"G":{"ha":924,"x_min":113,"x_max":913,"o":"m 500 340 l 518 507 l 872 507 l 828 86 l 657 -7 l 264 -7 l 113 86 l 197 886 l 368 979 l 761 979 l 913 886 l 892 688 l 697 688 l 710 813 l 383 813 l 315 160 l 642 160 l 660 340 l 500 340 z "},"H":{"ha":1007,"x_min":118,"x_max":990,"o":"m 356 417 l 313 0 l 118 0 l 219 972 l 414 972 l 374 583 l 756 583 l 796 972 l 990 972 l 889 0 l 694 0 l 738 417 l 356 417 z "},"I":{"ha":431,"x_min":118,"x_max":414,"o":"m 118 0 l 219 972 l 414 972 l 313 0 l 118 0 z "},"J":{"ha":757,"x_min":29,"x_max":740,"o":"m 461 160 l 546 972 l 740 972 l 647 86 l 476 -7 l 181 -7 l 29 86 l 57 354 l 251 354 l 232 160 l 461 160 z "},"K":{"ha":958,"x_min":118,"x_max":1010,"o":"m 118 0 l 219 972 l 414 972 l 368 535 l 371 535 l 779 972 l 1010 972 l 579 517 l 951 0 l 718 0 l 447 378 l 340 265 l 313 0 l 118 0 z "},"L":{"ha":679,"x_min":118,"x_max":661,"o":"m 118 0 l 219 972 l 414 972 l 329 167 l 661 167 l 644 0 l 118 0 z "},"M":{"ha":1242,"x_min":118,"x_max":1225,"o":"m 936 0 l 1003 642 l 1000 642 l 714 0 l 529 0 l 376 650 l 374 650 l 306 0 l 118 0 l 219 972 l 478 972 l 647 257 l 650 257 l 968 972 l 1225 972 l 1124 0 l 936 0 z "},"N":{"ha":1035,"x_min":118,"x_max":1018,"o":"m 378 629 l 313 0 l 118 0 l 219 972 l 401 972 l 754 343 l 757 343 l 824 972 l 1018 972 l 917 0 l 735 0 l 381 629 l 378 629 z "},"O":{"ha":993,"x_min":126,"x_max":968,"o":"m 883 86 l 713 -7 l 278 -7 l 126 86 l 211 886 l 382 979 l 817 979 l 968 886 l 883 86 m 397 813 l 329 160 l 697 160 l 765 813 l 397 813 z "},"P":{"ha":868,"x_min":118,"x_max":883,"o":"m 118 0 l 219 972 l 732 972 l 883 879 l 838 446 l 667 353 l 349 353 l 313 0 l 118 0 m 396 806 l 367 519 l 651 519 l 681 806 l 396 806 z "},"Q":{"ha":993,"x_min":126,"x_max":968,"o":"m 397 813 l 329 160 l 697 160 l 765 813 l 397 813 m 504 -7 l 278 -7 l 126 86 l 211 886 l 382 979 l 817 979 l 968 886 l 883 86 l 713 -7 l 840 -278 l 628 -278 l 504 -7 z "},"R":{"ha":924,"x_min":118,"x_max":897,"o":"m 856 0 l 642 0 l 471 367 l 350 367 l 313 0 l 118 0 l 219 972 l 746 972 l 897 879 l 853 460 l 682 367 l 856 0 m 396 806 l 368 533 l 667 533 l 694 806 l 396 806 z "},"S":{"ha":910,"x_min":113,"x_max":885,"o":"m 169 493 l 211 886 l 382 979 l 733 979 l 885 886 l 865 701 l 671 701 l 682 813 l 397 813 l 372 581 l 690 581 l 842 488 l 800 86 l 629 -7 l 264 -7 l 113 86 l 132 271 l 326 271 l 315 160 l 614 160 l 639 400 l 321 400 l 169 493 z "},"T":{"ha":789,"x_min":118,"x_max":856,"o":"m 575 806 l 492 0 l 297 0 l 381 806 l 118 806 l 136 972 l 856 972 l 838 806 l 575 806 z "},"U":{"ha":993,"x_min":126,"x_max":976,"o":"m 782 972 l 976 972 l 883 86 l 713 -7 l 278 -7 l 126 86 l 219 972 l 414 972 l 331 174 l 699 174 l 782 972 z "},"V":{"ha":950,"x_min":122,"x_max":1031,"o":"m 1031 972 l 582 0 l 368 0 l 122 972 l 319 972 l 499 238 l 501 238 l 833 972 l 1031 972 z "},"W":{"ha":1333,"x_min":136,"x_max":1400,"o":"m 1400 972 l 1051 0 l 843 0 l 736 657 l 733 657 l 490 0 l 282 0 l 136 972 l 325 972 l 419 306 l 422 306 l 669 972 l 867 972 l 975 308 l 978 308 l 1211 972 l 1400 972 z "},"X":{"ha":918,"x_min":35,"x_max":971,"o":"m 35 0 l 400 497 l 150 972 l 369 972 l 528 671 l 751 972 l 971 972 l 619 497 l 883 0 l 664 0 l 492 324 l 254 0 l 35 0 z "},"Y":{"ha":863,"x_min":122,"x_max":943,"o":"m 333 0 l 376 415 l 122 972 l 333 972 l 493 608 l 496 608 l 732 972 l 943 972 l 571 414 l 528 0 l 333 0 z "},"Z":{"ha":826,"x_min":63,"x_max":851,"o":"m 174 806 l 192 972 l 851 972 l 839 847 l 329 169 l 329 167 l 767 167 l 750 0 l 63 0 l 75 125 l 583 803 l 583 806 l 174 806 z "},"[":{"ha":518,"x_min":88,"x_max":547,"o":"m 390 875 l 283 -139 l 426 -139 l 411 -278 l 88 -278 l 224 1014 l 547 1014 l 533 875 l 390 875 z "},"\\":{"ha":578,"x_min":139,"x_max":539,"o":"m 319 1000 l 539 -28 l 358 -28 l 139 1000 l 319 1000 z "},"]":{"ha":518,"x_min":46,"x_max":506,"o":"m 204 -139 l 311 875 l 168 875 l 182 1014 l 506 1014 l 369 -278 l 46 -278 l 61 -139 l 204 -139 z "},"^":{"ha":850,"x_min":117,"x_max":842,"o":"m 321 528 l 117 528 l 442 972 l 611 972 l 842 528 l 638 528 l 510 796 l 508 796 l 321 528 z "},"_":{"ha":836,"x_min":-64,"x_max":857,"o":"m 857 -119 l 840 -278 l -64 -278 l -47 -119 l 857 -119 z "},"`":{"ha":694,"x_min":333,"x_max":682,"o":"m 569 997 l 682 819 l 515 819 l 333 997 l 569 997 z "},"a":{"ha":826,"x_min":113,"x_max":796,"o":"m 547 156 l 588 539 l 350 539 l 310 156 l 547 156 m 796 701 l 721 -7 l 629 -7 l 536 50 l 432 -7 l 264 -7 l 113 86 l 168 608 l 339 701 l 507 701 l 599 644 l 704 701 l 796 701 z "},"b":{"ha":840,"x_min":103,"x_max":800,"o":"m 467 701 l 649 701 l 800 608 l 744 86 l 574 -7 l 392 -7 l 299 50 l 194 -7 l 103 -7 l 210 1014 l 400 1014 l 361 644 l 467 701 m 350 539 l 310 156 l 561 156 l 601 539 l 350 539 z "},"c":{"ha":715,"x_min":114,"x_max":711,"o":"m 350 532 l 311 163 l 656 163 l 639 0 l 265 0 l 114 93 l 167 601 l 338 694 l 711 694 l 694 532 l 350 532 z "},"d":{"ha":840,"x_min":113,"x_max":842,"o":"m 339 701 l 521 701 l 613 644 l 651 1014 l 842 1014 l 735 -7 l 578 -7 l 550 50 l 446 -7 l 264 -7 l 113 86 l 168 608 l 339 701 m 561 156 l 601 539 l 350 539 l 310 156 l 561 156 z "},"e":{"ha":785,"x_min":114,"x_max":744,"o":"m 697 163 l 681 0 l 265 0 l 114 93 l 168 608 l 339 701 l 593 701 l 744 608 l 708 276 l 322 276 l 311 163 l 697 163 m 350 539 l 338 419 l 533 419 l 546 539 l 350 539 z "},"f":{"ha":568,"x_min":104,"x_max":625,"o":"m 104 532 l 121 694 l 249 694 l 272 921 l 443 1014 l 625 1014 l 608 851 l 456 851 l 439 694 l 592 694 l 575 532 l 422 532 l 367 0 l 176 0 l 232 532 l 104 532 z "},"g":{"ha":840,"x_min":115,"x_max":810,"o":"m 717 -185 l 544 -278 l 167 -278 l 185 -115 l 533 -115 l 553 78 l 449 21 l 267 21 l 115 114 l 168 608 l 339 701 l 521 701 l 613 644 l 718 701 l 810 701 l 717 -185 m 564 183 l 601 539 l 350 539 l 313 183 l 564 183 z "},"h":{"ha":840,"x_min":104,"x_max":800,"o":"m 294 0 l 104 0 l 210 1014 l 400 1014 l 361 644 l 467 701 l 649 701 l 800 608 l 736 0 l 546 0 l 601 539 l 350 539 l 294 0 z "},"i":{"ha":399,"x_min":104,"x_max":407,"o":"m 367 694 l 294 0 l 104 0 l 176 694 l 367 694 m 183 824 l 203 1014 l 407 1014 l 388 824 l 183 824 z "},"j":{"ha":399,"x_min":-64,"x_max":407,"o":"m 183 824 l 203 1014 l 407 1014 l 388 824 l 183 824 m 367 694 l 275 -185 l 103 -278 l -64 -278 l -46 -115 l 92 -115 l 176 694 l 367 694 z "},"k":{"ha":765,"x_min":104,"x_max":803,"o":"m 400 1014 l 338 415 l 340 415 l 585 694 l 803 694 l 522 385 l 772 0 l 551 0 l 396 246 l 310 150 l 294 0 l 104 0 l 210 1014 l 400 1014 z "},"l":{"ha":454,"x_min":114,"x_max":450,"o":"m 265 0 l 114 93 l 210 1014 l 400 1014 l 311 163 l 450 163 l 433 0 l 265 0 z "},"m":{"ha":1185,"x_min":104,"x_max":1144,"o":"m 1144 608 l 1081 0 l 890 0 l 946 539 l 743 539 l 688 0 l 497 0 l 553 539 l 350 539 l 294 0 l 104 0 l 178 701 l 335 701 l 361 644 l 467 701 l 600 701 l 721 626 l 860 701 l 993 701 l 1144 608 z "},"n":{"ha":826,"x_min":104,"x_max":786,"o":"m 786 608 l 722 0 l 532 0 l 588 539 l 350 539 l 294 0 l 104 0 l 178 701 l 335 701 l 361 644 l 467 701 l 635 701 l 786 608 z "},"o":{"ha":826,"x_min":113,"x_max":786,"o":"m 731 86 l 560 -7 l 264 -7 l 113 86 l 168 608 l 339 701 l 635 701 l 786 608 l 731 86 m 350 539 l 310 156 l 547 156 l 588 539 l 350 539 z "},"p":{"ha":840,"x_min":74,"x_max":800,"o":"m 574 -7 l 392 -7 l 299 50 l 264 -278 l 74 -278 l 178 701 l 335 701 l 361 644 l 467 701 l 649 701 l 800 608 l 744 86 l 574 -7 m 350 539 l 310 156 l 561 156 l 601 539 l 350 539 z "},"q":{"ha":840,"x_min":113,"x_max":810,"o":"m 446 -7 l 264 -7 l 113 86 l 168 608 l 339 701 l 521 701 l 613 644 l 718 701 l 810 701 l 706 -278 l 515 -278 l 550 50 l 446 -7 m 561 156 l 601 539 l 350 539 l 310 156 l 561 156 z "},"r":{"ha":568,"x_min":104,"x_max":606,"o":"m 589 532 l 350 532 l 294 0 l 104 0 l 176 694 l 333 694 l 361 638 l 465 694 l 606 694 l 589 532 z "},"s":{"ha":758,"x_min":104,"x_max":713,"o":"m 689 342 l 664 93 l 493 0 l 104 0 l 121 163 l 481 163 l 492 269 l 293 269 l 142 363 l 167 601 l 338 694 l 713 694 l 696 532 l 350 532 l 339 435 l 538 435 l 689 342 z "},"t":{"ha":596,"x_min":104,"x_max":592,"o":"m 104 532 l 121 694 l 249 694 l 261 811 l 463 921 l 439 694 l 592 694 l 575 532 l 422 532 l 383 163 l 536 163 l 519 0 l 338 0 l 186 93 l 232 532 l 104 532 z "},"u":{"ha":826,"x_min":113,"x_max":794,"o":"m 113 86 l 176 694 l 367 694 l 310 156 l 547 156 l 604 694 l 794 694 l 721 -7 l 564 -7 l 536 50 l 432 -7 l 264 -7 l 113 86 z "},"v":{"ha":746,"x_min":93,"x_max":797,"o":"m 283 694 l 396 239 l 399 239 l 607 694 l 797 694 l 468 0 l 278 0 l 93 694 l 283 694 z "},"w":{"ha":1067,"x_min":107,"x_max":1104,"o":"m 581 439 l 578 439 l 410 0 l 213 0 l 107 694 l 283 694 l 346 251 l 349 251 l 518 694 l 693 694 l 771 251 l 774 251 l 928 694 l 1104 694 l 854 0 l 657 0 l 581 439 z "},"x":{"ha":744,"x_min":21,"x_max":788,"o":"m 21 0 l 310 354 l 101 694 l 308 694 l 424 499 l 581 694 l 788 694 l 506 354 l 724 0 l 519 0 l 393 208 l 225 0 l 21 0 z "},"y":{"ha":757,"x_min":93,"x_max":808,"o":"m 128 -278 l 290 49 l 93 694 l 283 694 l 411 286 l 414 286 l 618 694 l 808 694 l 315 -278 l 128 -278 z "},"z":{"ha":661,"x_min":49,"x_max":671,"o":"m 63 133 l 404 529 l 404 532 l 118 532 l 135 694 l 671 694 l 657 561 l 315 165 l 315 163 l 615 163 l 599 0 l 49 0 l 63 133 z "},"{":{"ha":567,"x_min":79,"x_max":596,"o":"m 379 313 l 332 -139 l 475 -139 l 460 -278 l 297 -278 l 147 -185 l 197 299 l 79 299 l 94 438 l 213 438 l 263 921 l 433 1014 l 596 1014 l 582 875 l 439 875 l 392 424 l 292 369 l 292 367 l 379 313 z "},"|":{"ha":500,"x_min":129,"x_max":446,"o":"m 129 -278 l 265 1014 l 446 1014 l 310 -278 l 129 -278 z "},"}":{"ha":567,"x_min":46,"x_max":564,"o":"m 204 -139 l 251 313 l 350 367 l 350 369 l 264 424 l 311 875 l 168 875 l 182 1014 l 344 1014 l 496 921 l 446 438 l 564 438 l 549 299 l 431 299 l 381 -185 l 208 -278 l 46 -278 l 61 -139 l 204 -139 z "},"~":{"ha":933,"x_min":101,"x_max":911,"o":"m 379 354 l 275 354 l 264 240 l 101 240 l 121 424 l 292 517 l 449 517 l 632 403 l 736 403 l 749 517 l 911 517 l 892 333 l 721 240 l 564 240 l 379 354 z "}," ":{"ha":361,"x_min":0,"x_max":0,"o":""},"¡":{"ha":528,"x_min":110,"x_max":468,"o":"m 176 431 l 204 694 l 468 694 l 440 431 l 176 431 m 110 -319 l 211 294 l 378 294 l 349 -319 l 110 -319 z "},"¢":{"ha":729,"x_min":114,"x_max":725,"o":"m 597 694 l 725 694 l 708 532 l 350 532 l 311 163 l 669 163 l 653 0 l 525 0 l 507 -164 l 346 -164 l 364 0 l 265 0 l 114 93 l 167 601 l 338 694 l 436 694 l 453 858 l 614 858 l 597 694 z "},"£":{"ha":906,"x_min":89,"x_max":874,"o":"m 569 528 l 556 383 l 390 383 l 367 167 l 665 167 l 679 292 l 874 292 l 853 93 l 682 0 l 156 0 l 196 383 l 89 383 l 103 528 l 210 528 l 249 886 l 419 979 l 715 979 l 867 886 l 846 688 l 651 688 l 664 813 l 435 813 l 404 528 l 569 528 z "},"¥":{"ha":918,"x_min":104,"x_max":971,"o":"m 361 0 l 379 178 l 104 178 l 119 322 l 394 322 l 403 407 l 128 407 l 143 551 l 342 551 l 150 972 l 361 972 l 521 608 l 524 608 l 760 972 l 971 972 l 689 551 l 888 551 l 872 407 l 597 407 l 589 322 l 864 322 l 849 178 l 574 178 l 556 0 l 361 0 z "},"¦":{"ha":500,"x_min":129,"x_max":446,"o":"m 129 -278 l 189 281 l 369 281 l 310 -278 l 129 -278 m 207 456 l 265 1014 l 446 1014 l 388 456 l 207 456 z "},"§":{"ha":921,"x_min":99,"x_max":896,"o":"m 608 247 l 631 454 l 399 454 l 376 247 l 608 247 m 206 467 l 333 536 l 333 539 l 221 608 l 250 886 l 421 979 l 744 979 l 896 886 l 876 701 l 682 701 l 693 813 l 436 813 l 415 621 l 681 621 l 832 528 l 801 235 l 674 165 l 674 163 l 788 93 l 758 -185 l 586 -278 l 249 -278 l 99 -185 l 118 0 l 313 0 l 300 -111 l 571 -111 l 592 81 l 326 81 l 175 174 l 206 467 z "},"¨":{"ha":756,"x_min":197,"x_max":736,"o":"m 197 826 l 217 1014 l 404 1014 l 385 826 l 197 826 m 529 826 l 549 1014 l 736 1014 l 717 826 l 529 826 z "},"©":{"ha":1181,"x_min":126,"x_max":1156,"o":"m 1071 86 l 900 -7 l 278 -7 l 126 86 l 211 886 l 382 979 l 1004 979 l 1156 886 l 1071 86 m 372 840 l 297 132 l 908 132 l 983 840 l 372 840 m 710 390 l 861 390 l 846 246 l 739 188 l 481 188 l 383 246 l 433 726 l 543 785 l 801 785 l 896 726 l 882 582 l 731 582 l 738 656 l 578 656 l 542 317 l 701 317 l 710 390 z "},"ª":{"ha":826,"x_min":104,"x_max":825,"o":"m 104 0 l 121 163 l 739 163 l 722 0 l 104 0 m 576 433 l 617 817 l 379 817 l 339 433 l 576 433 m 825 979 l 750 271 l 658 271 l 565 328 l 461 271 l 293 271 l 142 364 l 197 886 l 368 979 l 536 979 l 628 922 l 733 979 l 825 979 z "},"«":{"ha":958,"x_min":144,"x_max":913,"o":"m 499 190 l 479 0 l 144 264 l 163 433 l 551 697 l 532 507 l 289 350 l 289 349 l 499 190 m 860 190 l 840 0 l 506 264 l 524 433 l 913 697 l 893 507 l 650 350 l 650 349 l 860 190 z "},"®":{"ha":1181,"x_min":126,"x_max":1156,"o":"m 854 192 l 689 192 l 594 393 l 563 393 l 542 192 l 390 192 l 453 781 l 788 781 l 883 722 l 856 453 l 756 397 l 854 192 m 590 651 l 576 522 l 711 522 l 725 651 l 590 651 m 1071 86 l 900 -7 l 278 -7 l 126 86 l 211 886 l 382 979 l 1004 979 l 1156 886 l 1071 86 m 372 840 l 297 132 l 908 132 l 983 840 l 372 840 z "},"¯":{"ha":832,"x_min":288,"x_max":733,"o":"m 288 833 l 301 968 l 733 968 l 719 833 l 288 833 z "},"°":{"ha":688,"x_min":151,"x_max":690,"o":"m 658 589 l 488 496 l 303 496 l 151 589 l 183 893 l 354 986 l 539 986 l 690 893 l 658 589 m 344 832 l 326 650 l 497 650 l 515 832 l 344 832 z "},"±":{"ha":958,"x_min":118,"x_max":904,"o":"m 182 621 l 450 621 l 469 806 l 656 806 l 636 621 l 904 621 l 885 435 l 617 435 l 597 250 l 411 250 l 431 435 l 163 435 l 182 621 m 860 186 l 840 0 l 118 0 l 138 186 l 860 186 z "},"´":{"ha":694,"x_min":315,"x_max":700,"o":"m 315 819 l 464 997 l 700 997 l 482 819 l 315 819 z "},"µ":{"ha":858,"x_min":104,"x_max":882,"o":"m 294 -261 l 104 -261 l 204 694 l 394 694 l 339 163 l 576 163 l 632 694 l 822 694 l 767 163 l 882 163 l 864 0 l 592 0 l 565 57 l 460 0 l 321 0 l 294 -261 z "},"¶":{"ha":1021,"x_min":118,"x_max":1004,"o":"m 682 -278 l 797 810 l 676 810 l 561 -278 l 371 -278 l 433 304 l 269 304 l 118 397 l 168 879 l 339 972 l 1004 972 l 872 -278 l 682 -278 z "},"·":{"ha":528,"x_min":169,"x_max":461,"o":"m 169 367 l 197 631 l 461 631 l 433 367 l 169 367 z "},"¸":{"ha":803,"x_min":231,"x_max":525,"o":"m 354 0 l 483 0 l 439 -65 l 525 -118 l 511 -249 l 383 -318 l 231 -318 l 243 -207 l 381 -207 l 388 -144 l 256 -144 l 354 0 z "},"º":{"ha":826,"x_min":104,"x_max":815,"o":"m 760 364 l 589 271 l 293 271 l 142 364 l 197 886 l 368 979 l 664 979 l 815 886 l 760 364 m 379 817 l 339 433 l 576 433 l 617 817 l 379 817 m 104 0 l 121 163 l 739 163 l 722 0 l 104 0 z "},"»":{"ha":958,"x_min":118,"x_max":885,"o":"m 479 0 l 499 190 l 742 349 l 742 350 l 532 507 l 551 697 l 885 433 l 867 264 l 479 0 m 118 0 l 138 190 l 381 349 l 381 350 l 171 507 l 190 697 l 524 433 l 506 264 l 118 0 z "},"¿":{"ha":819,"x_min":93,"x_max":697,"o":"m 397 172 l 422 294 l 575 294 l 568 99 l 397 6 l 313 6 l 296 -153 l 490 -153 l 503 -28 l 697 -28 l 676 -226 l 506 -319 l 244 -319 l 93 -226 l 125 79 l 297 172 l 397 172 m 672 694 l 644 431 l 381 431 l 408 694 l 672 694 z "},"À":{"ha":936,"x_min":21,"x_max":915,"o":"m 669 972 l 915 0 l 724 0 l 671 210 l 307 210 l 213 0 l 21 0 l 469 972 l 669 972 m 543 728 l 383 376 l 629 376 l 546 728 l 543 728 m 569 1268 l 682 1090 l 515 1090 l 333 1268 l 569 1268 z "},"Á":{"ha":936,"x_min":21,"x_max":915,"o":"m 669 972 l 915 0 l 724 0 l 671 210 l 307 210 l 213 0 l 21 0 l 469 972 l 669 972 m 543 728 l 383 376 l 629 376 l 546 728 l 543 728 m 454 1090 l 603 1268 l 839 1268 l 621 1090 l 454 1090 z "},"Â":{"ha":936,"x_min":21,"x_max":915,"o":"m 669 972 l 915 0 l 724 0 l 671 210 l 307 210 l 213 0 l 21 0 l 469 972 l 669 972 m 543 728 l 383 376 l 629 376 l 546 728 l 543 728 m 450 1296 l 714 1296 l 833 1090 l 674 1090 l 572 1201 l 450 1090 l 290 1090 l 450 1296 z "},"Ã":{"ha":936,"x_min":21,"x_max":915,"o":"m 669 972 l 915 0 l 724 0 l 671 210 l 307 210 l 213 0 l 21 0 l 469 972 l 669 972 m 543 728 l 383 376 l 629 376 l 546 728 l 543 728 m 460 1204 l 454 1204 l 442 1090 l 306 1090 l 324 1263 l 463 1339 l 501 1339 l 686 1225 l 692 1225 l 704 1339 l 840 1339 l 822 1167 l 683 1090 l 644 1090 l 460 1204 z "},"Ä":{"ha":936,"x_min":21,"x_max":915,"o":"m 669 972 l 915 0 l 724 0 l 671 210 l 307 210 l 213 0 l 21 0 l 469 972 l 669 972 m 543 728 l 383 376 l 629 376 l 546 728 l 543 728 m 301 1090 l 321 1278 l 508 1278 l 489 1090 l 301 1090 m 633 1090 l 653 1278 l 840 1278 l 821 1090 l 633 1090 z "},"Å":{"ha":936,"x_min":21,"x_max":915,"o":"m 788 913 l 697 864 l 915 0 l 724 0 l 671 210 l 307 210 l 213 0 l 21 0 l 418 861 l 336 913 l 367 1203 l 486 1268 l 710 1268 l 818 1203 l 788 913 m 543 728 l 383 376 l 629 376 l 546 728 l 543 728 m 504 1136 l 489 979 l 649 979 l 664 1136 l 504 1136 z "},"Æ":{"ha":1322,"x_min":-35,"x_max":1361,"o":"m 915 417 l 889 167 l 1276 167 l 1260 0 l 678 0 l 699 210 l 338 210 l 171 0 l -35 0 l 749 972 l 1361 972 l 1343 806 l 956 806 l 933 583 l 1238 583 l 1219 417 l 915 417 m 751 728 l 471 376 l 717 376 l 754 728 l 751 728 z "},"Ç":{"ha":938,"x_min":126,"x_max":926,"o":"m 668 285 l 863 285 l 842 86 l 671 -7 l 536 -7 l 497 -65 l 583 -118 l 569 -249 l 442 -318 l 289 -318 l 301 -207 l 439 -207 l 446 -144 l 314 -144 l 407 -7 l 278 -7 l 126 86 l 211 886 l 382 979 l 775 979 l 926 886 l 906 688 l 711 688 l 724 813 l 397 813 l 329 160 l 656 160 l 668 285 z "},"È":{"ha":763,"x_min":118,"x_max":801,"o":"m 356 417 l 329 167 l 717 167 l 700 0 l 118 0 l 219 972 l 801 972 l 783 806 l 396 806 l 374 583 l 678 583 l 660 417 l 356 417 m 528 1268 l 640 1090 l 474 1090 l 292 1268 l 528 1268 z "},"É":{"ha":763,"x_min":118,"x_max":801,"o":"m 356 417 l 329 167 l 717 167 l 700 0 l 118 0 l 219 972 l 801 972 l 783 806 l 396 806 l 374 583 l 678 583 l 660 417 l 356 417 m 371 1090 l 519 1268 l 756 1268 l 538 1090 l 371 1090 z "},"Ê":{"ha":763,"x_min":118,"x_max":801,"o":"m 356 417 l 329 167 l 717 167 l 700 0 l 118 0 l 219 972 l 801 972 l 783 806 l 396 806 l 374 583 l 678 583 l 660 417 l 356 417 m 390 1296 l 654 1296 l 774 1090 l 614 1090 l 513 1201 l 390 1090 l 231 1090 l 390 1296 z "},"Ë":{"ha":763,"x_min":118,"x_max":801,"o":"m 356 417 l 329 167 l 717 167 l 700 0 l 118 0 l 219 972 l 801 972 l 783 806 l 396 806 l 374 583 l 678 583 l 660 417 l 356 417 m 239 1090 l 258 1278 l 446 1278 l 426 1090 l 239 1090 m 571 1090 l 590 1278 l 778 1278 l 758 1090 l 571 1090 z "},"Ì":{"ha":431,"x_min":76,"x_max":425,"o":"m 118 0 l 219 972 l 414 972 l 313 0 l 118 0 m 313 1268 l 425 1090 l 258 1090 l 76 1268 l 313 1268 z "},"Í":{"ha":431,"x_min":118,"x_max":561,"o":"m 118 0 l 219 972 l 414 972 l 313 0 l 118 0 m 176 1090 l 325 1268 l 561 1268 l 343 1090 l 176 1090 z "},"Î":{"ha":431,"x_min":31,"x_max":574,"o":"m 118 0 l 219 972 l 414 972 l 313 0 l 118 0 m 190 1296 l 454 1296 l 574 1090 l 414 1090 l 313 1201 l 190 1090 l 31 1090 l 190 1296 z "},"Ï":{"ha":431,"x_min":42,"x_max":581,"o":"m 118 0 l 219 972 l 414 972 l 313 0 l 118 0 m 42 1090 l 61 1278 l 249 1278 l 229 1090 l 42 1090 m 374 1090 l 393 1278 l 581 1278 l 561 1090 l 374 1090 z "},"Ð":{"ha":993,"x_min":61,"x_max":967,"o":"m 75 521 l 172 521 l 219 972 l 815 972 l 967 879 l 885 93 l 714 0 l 118 0 l 158 390 l 61 390 l 75 521 m 396 806 l 367 521 l 500 521 l 486 390 l 353 390 l 329 167 l 697 167 l 764 806 l 396 806 z "},"Ñ":{"ha":1035,"x_min":118,"x_max":1018,"o":"m 378 629 l 313 0 l 118 0 l 219 972 l 401 972 l 754 343 l 757 343 l 824 972 l 1018 972 l 917 0 l 735 0 l 381 629 l 378 629 m 503 1204 l 497 1204 l 485 1090 l 349 1090 l 367 1263 l 506 1339 l 544 1339 l 729 1225 l 735 1225 l 747 1339 l 883 1339 l 865 1167 l 726 1090 l 688 1090 l 503 1204 z "},"Ò":{"ha":993,"x_min":126,"x_max":968,"o":"m 883 86 l 713 -7 l 278 -7 l 126 86 l 211 886 l 382 979 l 817 979 l 968 886 l 883 86 m 397 813 l 329 160 l 697 160 l 765 813 l 397 813 m 597 1268 l 710 1090 l 543 1090 l 361 1268 l 597 1268 z "},"Ó":{"ha":993,"x_min":126,"x_max":968,"o":"m 883 86 l 713 -7 l 278 -7 l 126 86 l 211 886 l 382 979 l 817 979 l 968 886 l 883 86 m 397 813 l 329 160 l 697 160 l 765 813 l 397 813 m 454 1090 l 603 1268 l 839 1268 l 621 1090 l 454 1090 z "},"Ô":{"ha":993,"x_min":126,"x_max":968,"o":"m 883 86 l 713 -7 l 278 -7 l 126 86 l 211 886 l 382 979 l 817 979 l 968 886 l 883 86 m 397 813 l 329 160 l 697 160 l 765 813 l 397 813 m 485 1296 l 749 1296 l 868 1090 l 708 1090 l 607 1201 l 485 1090 l 325 1090 l 485 1296 z "},"Õ":{"ha":993,"x_min":126,"x_max":968,"o":"m 883 86 l 713 -7 l 278 -7 l 126 86 l 211 886 l 382 979 l 817 979 l 968 886 l 883 86 m 397 813 l 329 160 l 697 160 l 765 813 l 397 813 m 488 1204 l 482 1204 l 469 1090 l 333 1090 l 351 1263 l 490 1339 l 529 1339 l 714 1225 l 719 1225 l 732 1339 l 868 1339 l 850 1167 l 711 1090 l 672 1090 l 488 1204 z "},"Ö":{"ha":993,"x_min":126,"x_max":968,"o":"m 883 86 l 713 -7 l 278 -7 l 126 86 l 211 886 l 382 979 l 817 979 l 968 886 l 883 86 m 397 813 l 329 160 l 697 160 l 765 813 l 397 813 m 329 1090 l 349 1278 l 536 1278 l 517 1090 l 329 1090 m 661 1090 l 681 1278 l 868 1278 l 849 1090 l 661 1090 z "},"×":{"ha":875,"x_min":89,"x_max":860,"o":"m 283 722 l 489 493 l 742 722 l 860 590 l 607 361 l 811 132 l 667 0 l 461 229 l 208 0 l 89 132 l 343 361 l 138 590 l 283 722 z "},"Ø":{"ha":993,"x_min":126,"x_max":968,"o":"m 883 86 l 713 -7 l 278 -7 l 126 86 l 211 886 l 382 979 l 817 979 l 968 886 l 883 86 m 397 160 l 697 160 l 749 660 l 397 160 m 397 813 l 344 313 l 696 813 l 397 813 z "},"Ù":{"ha":993,"x_min":126,"x_max":976,"o":"m 782 972 l 976 972 l 883 86 l 713 -7 l 278 -7 l 126 86 l 219 972 l 414 972 l 331 174 l 699 174 l 782 972 m 583 1268 l 696 1090 l 529 1090 l 347 1268 l 583 1268 z "},"Ú":{"ha":993,"x_min":126,"x_max":976,"o":"m 782 972 l 976 972 l 883 86 l 713 -7 l 278 -7 l 126 86 l 219 972 l 414 972 l 331 174 l 699 174 l 782 972 m 475 1090 l 624 1268 l 860 1268 l 642 1090 l 475 1090 z "},"Û":{"ha":993,"x_min":126,"x_max":976,"o":"m 782 972 l 976 972 l 883 86 l 713 -7 l 278 -7 l 126 86 l 219 972 l 414 972 l 331 174 l 699 174 l 782 972 m 482 1296 l 746 1296 l 865 1090 l 706 1090 l 604 1201 l 482 1090 l 322 1090 l 482 1296 z "},"Ü":{"ha":993,"x_min":126,"x_max":976,"o":"m 782 972 l 976 972 l 883 86 l 713 -7 l 278 -7 l 126 86 l 219 972 l 414 972 l 331 174 l 699 174 l 782 972 m 329 1090 l 349 1278 l 536 1278 l 517 1090 l 329 1090 m 661 1090 l 681 1278 l 868 1278 l 849 1090 l 661 1090 z "},"Ý":{"ha":863,"x_min":122,"x_max":943,"o":"m 333 0 l 376 415 l 122 972 l 333 972 l 493 608 l 496 608 l 732 972 l 943 972 l 571 414 l 528 0 l 333 0 m 399 1090 l 547 1268 l 783 1268 l 565 1090 l 399 1090 z "},"Þ":{"ha":896,"x_min":118,"x_max":869,"o":"m 118 0 l 224 1014 l 418 1014 l 400 836 l 718 836 l 869 743 l 821 289 l 650 196 l 332 196 l 313 0 l 118 0 m 382 669 l 350 363 l 635 363 l 667 669 l 382 669 z "},"ß":{"ha":938,"x_min":78,"x_max":883,"o":"m 78 419 l 96 586 l 221 586 l 251 879 l 422 972 l 732 972 l 883 879 l 851 574 l 742 514 l 878 432 l 843 93 l 672 0 l 442 0 l 458 167 l 656 167 l 682 419 l 485 419 l 503 586 l 658 586 l 681 806 l 438 806 l 324 -278 l 129 -278 l 203 419 l 78 419 z "},"à":{"ha":826,"x_min":113,"x_max":796,"o":"m 547 156 l 588 539 l 350 539 l 310 156 l 547 156 m 796 701 l 721 -7 l 629 -7 l 536 50 l 432 -7 l 264 -7 l 113 86 l 168 608 l 339 701 l 507 701 l 599 644 l 704 701 l 796 701 m 540 997 l 653 819 l 486 819 l 304 997 l 540 997 z "},"á":{"ha":826,"x_min":113,"x_max":796,"o":"m 547 156 l 588 539 l 350 539 l 310 156 l 547 156 m 796 701 l 721 -7 l 629 -7 l 536 50 l 432 -7 l 264 -7 l 113 86 l 168 608 l 339 701 l 507 701 l 599 644 l 704 701 l 796 701 m 343 819 l 492 997 l 728 997 l 510 819 l 343 819 z "},"â":{"ha":826,"x_min":113,"x_max":796,"o":"m 547 156 l 588 539 l 350 539 l 310 156 l 547 156 m 796 701 l 721 -7 l 629 -7 l 536 50 l 432 -7 l 264 -7 l 113 86 l 168 608 l 339 701 l 507 701 l 599 644 l 704 701 l 796 701 m 392 1025 l 656 1025 l 775 819 l 615 819 l 514 931 l 392 819 l 232 819 l 392 1025 z "},"ã":{"ha":826,"x_min":113,"x_max":796,"o":"m 547 156 l 588 539 l 350 539 l 310 156 l 547 156 m 796 701 l 721 -7 l 629 -7 l 536 50 l 432 -7 l 264 -7 l 113 86 l 168 608 l 339 701 l 507 701 l 599 644 l 704 701 l 796 701 m 406 926 l 400 926 l 388 813 l 251 813 l 269 985 l 408 1061 l 447 1061 l 632 947 l 638 947 l 650 1061 l 786 1061 l 768 889 l 629 813 l 590 813 l 406 926 z "},"ä":{"ha":826,"x_min":113,"x_max":796,"o":"m 547 156 l 588 539 l 350 539 l 310 156 l 547 156 m 796 701 l 721 -7 l 629 -7 l 536 50 l 432 -7 l 264 -7 l 113 86 l 168 608 l 339 701 l 507 701 l 599 644 l 704 701 l 796 701 m 249 826 l 268 1014 l 456 1014 l 436 826 l 249 826 m 581 826 l 600 1014 l 788 1014 l 768 826 l 581 826 z "},"å":{"ha":826,"x_min":113,"x_max":796,"o":"m 547 156 l 588 539 l 350 539 l 310 156 l 547 156 m 796 701 l 721 -7 l 629 -7 l 536 50 l 432 -7 l 264 -7 l 113 86 l 168 608 l 339 701 l 507 701 l 599 644 l 704 701 l 796 701 m 738 857 l 617 792 l 393 792 l 286 857 l 317 1147 l 438 1213 l 661 1213 l 768 1147 l 738 857 m 456 1081 l 439 924 l 599 924 l 615 1081 l 456 1081 z "},"æ":{"ha":1143,"x_min":85,"x_max":1103,"o":"m 1056 163 l 1039 0 l 624 0 l 507 71 l 363 -7 l 236 -7 l 85 86 l 110 326 l 281 419 l 506 419 l 518 532 l 201 532 l 218 694 l 536 694 l 618 643 l 725 701 l 951 701 l 1103 608 l 1067 276 l 681 276 l 669 163 l 1056 163 m 294 274 l 282 153 l 478 153 l 490 274 l 294 274 m 708 539 l 696 419 l 892 419 l 904 539 l 708 539 z "},"ç":{"ha":715,"x_min":114,"x_max":711,"o":"m 364 0 l 265 0 l 114 93 l 167 601 l 338 694 l 711 694 l 694 532 l 350 532 l 311 163 l 656 163 l 639 0 l 493 0 l 449 -65 l 535 -118 l 521 -249 l 393 -318 l 240 -318 l 253 -207 l 390 -207 l 397 -144 l 265 -144 l 364 0 z "},"è":{"ha":785,"x_min":114,"x_max":744,"o":"m 697 163 l 681 0 l 265 0 l 114 93 l 168 608 l 339 701 l 593 701 l 744 608 l 708 276 l 322 276 l 311 163 l 697 163 m 350 539 l 338 419 l 533 419 l 546 539 l 350 539 m 528 997 l 640 819 l 474 819 l 292 997 l 528 997 z "},"é":{"ha":785,"x_min":114,"x_max":744,"o":"m 697 163 l 681 0 l 265 0 l 114 93 l 168 608 l 339 701 l 593 701 l 744 608 l 708 276 l 322 276 l 311 163 l 697 163 m 350 539 l 338 419 l 533 419 l 546 539 l 350 539 m 357 819 l 506 997 l 742 997 l 524 819 l 357 819 z "},"ê":{"ha":785,"x_min":114,"x_max":757,"o":"m 697 163 l 681 0 l 265 0 l 114 93 l 168 608 l 339 701 l 593 701 l 744 608 l 708 276 l 322 276 l 311 163 l 697 163 m 350 539 l 338 419 l 533 419 l 546 539 l 350 539 m 374 1025 l 638 1025 l 757 819 l 597 819 l 496 931 l 374 819 l 214 819 l 374 1025 z "},"ë":{"ha":785,"x_min":114,"x_max":768,"o":"m 697 163 l 681 0 l 265 0 l 114 93 l 168 608 l 339 701 l 593 701 l 744 608 l 708 276 l 322 276 l 311 163 l 697 163 m 350 539 l 338 419 l 533 419 l 546 539 l 350 539 m 229 826 l 249 1014 l 436 1014 l 417 826 l 229 826 m 561 826 l 581 1014 l 768 1014 l 749 826 l 561 826 z "},"ì":{"ha":399,"x_min":49,"x_max":397,"o":"m 367 694 l 294 0 l 104 0 l 176 694 l 367 694 m 285 997 l 397 819 l 231 819 l 49 997 l 285 997 z "},"í":{"ha":399,"x_min":104,"x_max":558,"o":"m 367 694 l 294 0 l 104 0 l 176 694 l 367 694 m 174 819 l 322 997 l 558 997 l 340 819 l 174 819 z "},"î":{"ha":399,"x_min":14,"x_max":557,"o":"m 367 694 l 294 0 l 104 0 l 176 694 l 367 694 m 174 1025 l 438 1025 l 557 819 l 397 819 l 296 931 l 174 819 l 14 819 l 174 1025 z "},"ï":{"ha":399,"x_min":26,"x_max":565,"o":"m 367 694 l 294 0 l 104 0 l 176 694 l 367 694 m 26 826 l 46 1014 l 233 1014 l 214 826 l 26 826 m 358 826 l 378 1014 l 565 1014 l 546 826 l 358 826 z "},"ð":{"ha":896,"x_min":126,"x_max":939,"o":"m 857 756 l 939 756 l 925 625 l 843 625 l 786 86 l 615 -7 l 278 -7 l 126 86 l 168 483 l 339 576 l 544 576 l 638 519 l 649 625 l 500 625 l 514 756 l 663 756 l 668 813 l 364 813 l 382 979 l 719 979 l 871 886 l 857 756 m 600 160 l 626 410 l 356 410 l 329 160 l 600 160 z "},"ñ":{"ha":826,"x_min":104,"x_max":786,"o":"m 786 608 l 722 0 l 532 0 l 588 539 l 350 539 l 294 0 l 104 0 l 178 701 l 335 701 l 361 644 l 467 701 l 635 701 l 786 608 m 406 926 l 400 926 l 388 813 l 251 813 l 269 985 l 408 1061 l 447 1061 l 632 947 l 638 947 l 650 1061 l 786 1061 l 768 889 l 629 813 l 590 813 l 406 926 z "},"ò":{"ha":826,"x_min":113,"x_max":786,"o":"m 731 86 l 560 -7 l 264 -7 l 113 86 l 168 608 l 339 701 l 635 701 l 786 608 l 731 86 m 350 539 l 310 156 l 547 156 l 588 539 l 350 539 m 542 997 l 654 819 l 488 819 l 306 997 l 542 997 z "},"ó":{"ha":826,"x_min":113,"x_max":786,"o":"m 731 86 l 560 -7 l 264 -7 l 113 86 l 168 608 l 339 701 l 635 701 l 786 608 l 731 86 m 350 539 l 310 156 l 547 156 l 588 539 l 350 539 m 357 819 l 506 997 l 742 997 l 524 819 l 357 819 z "},"ô":{"ha":826,"x_min":113,"x_max":786,"o":"m 731 86 l 560 -7 l 264 -7 l 113 86 l 168 608 l 339 701 l 635 701 l 786 608 l 731 86 m 350 539 l 310 156 l 547 156 l 588 539 l 350 539 m 396 1025 l 660 1025 l 779 819 l 619 819 l 518 931 l 396 819 l 236 819 l 396 1025 z "},"õ":{"ha":826,"x_min":113,"x_max":786,"o":"m 731 86 l 560 -7 l 264 -7 l 113 86 l 168 608 l 339 701 l 635 701 l 786 608 l 731 86 m 350 539 l 310 156 l 547 156 l 588 539 l 350 539 m 406 926 l 400 926 l 388 813 l 251 813 l 269 985 l 408 1061 l 447 1061 l 632 947 l 638 947 l 650 1061 l 786 1061 l 768 889 l 629 813 l 590 813 l 406 926 z "},"ö":{"ha":826,"x_min":113,"x_max":786,"o":"m 731 86 l 560 -7 l 264 -7 l 113 86 l 168 608 l 339 701 l 635 701 l 786 608 l 731 86 m 350 539 l 310 156 l 547 156 l 588 539 l 350 539 m 246 826 l 265 1014 l 453 1014 l 433 826 l 246 826 m 578 826 l 597 1014 l 785 1014 l 765 826 l 578 826 z "},"÷":{"ha":847,"x_min":92,"x_max":832,"o":"m 832 454 l 814 282 l 92 282 l 110 454 l 832 454 m 300 -43 l 325 193 l 561 193 l 536 -43 l 300 -43 m 363 543 l 386 779 l 622 779 l 599 543 l 363 543 z "},"ø":{"ha":826,"x_min":113,"x_max":786,"o":"m 731 86 l 560 -7 l 264 -7 l 113 86 l 168 608 l 339 701 l 635 701 l 786 608 l 731 86 m 367 156 l 547 156 l 575 418 l 367 156 m 350 539 l 322 275 l 531 539 l 350 539 z "},"ù":{"ha":826,"x_min":113,"x_max":794,"o":"m 113 86 l 176 694 l 367 694 l 310 156 l 547 156 l 604 694 l 794 694 l 721 -7 l 564 -7 l 536 50 l 432 -7 l 264 -7 l 113 86 m 569 997 l 682 819 l 515 819 l 333 997 l 569 997 z "},"ú":{"ha":826,"x_min":113,"x_max":794,"o":"m 113 86 l 176 694 l 367 694 l 310 156 l 547 156 l 604 694 l 794 694 l 721 -7 l 564 -7 l 536 50 l 432 -7 l 264 -7 l 113 86 m 371 819 l 519 997 l 756 997 l 538 819 l 371 819 z "},"û":{"ha":826,"x_min":113,"x_max":794,"o":"m 113 86 l 176 694 l 367 694 l 310 156 l 547 156 l 604 694 l 794 694 l 721 -7 l 564 -7 l 536 50 l 432 -7 l 264 -7 l 113 86 m 396 1025 l 660 1025 l 779 819 l 619 819 l 518 931 l 396 819 l 236 819 l 396 1025 z "},"ü":{"ha":826,"x_min":113,"x_max":794,"o":"m 113 86 l 176 694 l 367 694 l 310 156 l 547 156 l 604 694 l 794 694 l 721 -7 l 564 -7 l 536 50 l 432 -7 l 264 -7 l 113 86 m 246 826 l 265 1014 l 453 1014 l 433 826 l 246 826 m 578 826 l 597 1014 l 785 1014 l 765 826 l 578 826 z "},"ý":{"ha":757,"x_min":93,"x_max":808,"o":"m 128 -278 l 290 49 l 93 694 l 283 694 l 411 286 l 414 286 l 618 694 l 808 694 l 315 -278 l 128 -278 m 343 819 l 492 997 l 728 997 l 510 819 l 343 819 z "},"þ":{"ha":813,"x_min":60,"x_max":786,"o":"m 196 1014 l 386 1014 l 347 644 l 453 701 l 635 701 l 786 608 l 731 86 l 560 -7 l 378 -7 l 285 50 l 250 -278 l 60 -278 l 196 1014 m 336 539 l 296 156 l 547 156 l 588 539 l 336 539 z "},"ÿ":{"ha":757,"x_min":93,"x_max":808,"o":"m 128 -278 l 290 49 l 93 694 l 283 694 l 411 286 l 414 286 l 618 694 l 808 694 l 315 -278 l 128 -278 m 218 826 l 238 1014 l 425 1014 l 406 826 l 218 826 m 550 826 l 569 1014 l 757 1014 l 738 826 l 550 826 z "},"ħ":{"ha":840,"x_min":96,"x_max":800,"o":"m 294 0 l 104 0 l 186 785 l 96 785 l 110 915 l 200 915 l 210 1014 l 400 1014 l 390 915 l 596 915 l 582 785 l 376 785 l 361 644 l 467 701 l 649 701 l 800 608 l 736 0 l 546 0 l 601 539 l 350 539 l 294 0 z "},"Ĩ":{"ha":431,"x_min":60,"x_max":594,"o":"m 118 0 l 219 972 l 414 972 l 313 0 l 118 0 m 214 1204 l 208 1204 l 196 1090 l 60 1090 l 78 1263 l 217 1339 l 256 1339 l 440 1225 l 446 1225 l 458 1339 l 594 1339 l 576 1167 l 438 1090 l 399 1090 l 214 1204 z "},"ĩ":{"ha":399,"x_min":8,"x_max":543,"o":"m 367 694 l 294 0 l 104 0 l 176 694 l 367 694 m 163 926 l 157 926 l 144 813 l 8 813 l 26 985 l 165 1061 l 204 1061 l 389 947 l 394 947 l 407 1061 l 543 1061 l 525 889 l 386 813 l 347 813 l 163 926 z "},"ı":{"ha":399,"x_min":104,"x_max":367,"o":"m 367 694 l 294 0 l 104 0 l 176 694 l 367 694 z "},"Ĳ":{"ha":1188,"x_min":118,"x_max":1171,"o":"m 118 0 l 219 972 l 414 972 l 313 0 l 118 0 m 892 160 l 976 972 l 1171 972 l 1078 86 l 907 -7 l 611 -7 l 460 86 l 488 354 l 682 354 l 663 160 l 892 160 z "},"ĳ":{"ha":797,"x_min":104,"x_max":806,"o":"m 367 694 l 294 0 l 104 0 l 176 694 l 367 694 m 183 824 l 203 1014 l 407 1014 l 388 824 l 183 824 m 582 824 l 601 1014 l 806 1014 l 786 824 l 582 824 m 765 694 l 674 -185 l 501 -278 l 335 -278 l 353 -115 l 490 -115 l 575 694 l 765 694 z "},"Ĵ":{"ha":757,"x_min":29,"x_max":938,"o":"m 461 160 l 546 972 l 740 972 l 647 86 l 476 -7 l 181 -7 l 29 86 l 57 354 l 251 354 l 232 160 l 461 160 m 554 1303 l 818 1303 l 938 1097 l 778 1097 l 676 1208 l 554 1097 l 394 1097 l 554 1303 z "},"ĵ":{"ha":399,"x_min":-64,"x_max":558,"o":"m 367 694 l 275 -185 l 103 -278 l -64 -278 l -46 -115 l 92 -115 l 176 694 l 367 694 m 175 1025 l 439 1025 l 558 819 l 399 819 l 297 931 l 175 819 l 15 819 l 175 1025 z "},"ķ":{"ha":765,"x_min":104,"x_max":803,"o":"m 400 1014 l 338 415 l 340 415 l 585 694 l 803 694 l 522 385 l 772 0 l 551 0 l 396 246 l 310 150 l 294 0 l 104 0 l 210 1014 l 400 1014 m 254 -510 l 299 -76 l 510 -76 l 500 -168 l 346 -510 l 254 -510 z "},"ĸ":{"ha":765,"x_min":104,"x_max":803,"o":"m 365 694 l 338 415 l 340 415 l 585 694 l 803 694 l 522 385 l 772 0 l 551 0 l 396 246 l 310 150 l 294 0 l 104 0 l 175 694 l 365 694 z "},"Ŀ":{"ha":694,"x_min":118,"x_max":682,"o":"m 118 0 l 219 972 l 414 972 l 329 167 l 661 167 l 644 0 l 118 0 m 476 325 l 496 511 l 682 511 l 663 325 l 476 325 z "},"ŀ":{"ha":671,"x_min":114,"x_max":668,"o":"m 265 0 l 114 93 l 210 1014 l 400 1014 l 311 163 l 450 163 l 433 0 l 265 0 m 463 325 l 482 511 l 668 511 l 649 325 l 463 325 z "},"Ł":{"ha":679,"x_min":61,"x_max":661,"o":"m 75 525 l 175 550 l 219 972 l 414 972 l 375 601 l 513 636 l 497 497 l 360 463 l 329 167 l 661 167 l 644 0 l 118 0 l 161 411 l 61 386 l 75 525 z "},"ł":{"ha":454,"x_min":61,"x_max":483,"o":"m 75 525 l 161 547 l 210 1014 l 400 1014 l 357 599 l 483 632 l 469 493 l 342 460 l 311 163 l 450 163 l 433 0 l 265 0 l 114 93 l 146 408 l 61 386 l 75 525 z "},"Ń":{"ha":1035,"x_min":118,"x_max":1018,"o":"m 378 629 l 313 0 l 118 0 l 219 972 l 401 972 l 754 343 l 757 343 l 824 972 l 1018 972 l 917 0 l 735 0 l 381 629 l 378 629 m 506 1097 l 654 1275 l 890 1275 l 672 1097 l 506 1097 z "},"ń":{"ha":826,"x_min":104,"x_max":786,"o":"m 786 608 l 722 0 l 532 0 l 588 539 l 350 539 l 294 0 l 104 0 l 178 701 l 335 701 l 361 644 l 467 701 l 635 701 l 786 608 m 332 819 l 481 997 l 717 997 l 499 819 l 332 819 z "},"Œ":{"ha":1325,"x_min":128,"x_max":1364,"o":"m 918 417 l 892 167 l 1279 167 l 1263 0 l 279 0 l 128 93 l 210 879 l 381 972 l 1364 972 l 1346 806 l 958 806 l 936 583 l 1240 583 l 1222 417 l 918 417 m 396 806 l 329 167 l 697 167 l 764 806 l 396 806 z "},"œ":{"ha":1213,"x_min":113,"x_max":1172,"o":"m 1125 163 l 1108 0 l 721 0 l 638 50 l 532 -7 l 264 -7 l 113 86 l 168 608 l 339 701 l 607 701 l 693 647 l 794 701 l 1021 701 l 1172 608 l 1136 276 l 750 276 l 739 163 l 1125 163 m 350 539 l 310 156 l 547 156 l 588 539 l 350 539 m 778 539 l 765 419 l 961 419 l 974 539 l 778 539 z "},"Ŕ":{"ha":924,"x_min":118,"x_max":897,"o":"m 856 0 l 642 0 l 471 367 l 350 367 l 313 0 l 118 0 l 219 972 l 746 972 l 897 879 l 853 460 l 682 367 l 856 0 m 396 806 l 368 533 l 667 533 l 694 806 l 396 806 m 408 1097 l 557 1275 l 793 1275 l 575 1097 l 408 1097 z "},"Ŗ":{"ha":924,"x_min":118,"x_max":897,"o":"m 856 0 l 642 0 l 471 367 l 350 367 l 313 0 l 118 0 l 219 972 l 746 972 l 897 879 l 853 460 l 682 367 l 856 0 m 396 806 l 368 533 l 667 533 l 694 806 l 396 806 m 306 -510 l 350 -76 l 561 -76 l 551 -168 l 397 -510 l 306 -510 z "},"ŗ":{"ha":568,"x_min":104,"x_max":606,"o":"m 589 532 l 350 532 l 294 0 l 104 0 l 176 694 l 333 694 l 361 638 l 465 694 l 606 694 l 589 532 m 156 -510 l 200 -76 l 411 -76 l 401 -168 l 247 -510 l 156 -510 z "},"Ř":{"ha":924,"x_min":118,"x_max":897,"o":"m 856 0 l 642 0 l 471 367 l 350 367 l 313 0 l 118 0 l 219 972 l 746 972 l 897 879 l 853 460 l 682 367 l 856 0 m 396 806 l 368 533 l 667 533 l 694 806 l 396 806 m 685 1097 l 421 1097 l 301 1303 l 461 1303 l 563 1192 l 685 1303 l 844 1303 l 685 1097 z "},"ř":{"ha":568,"x_min":104,"x_max":681,"o":"m 589 532 l 350 532 l 294 0 l 104 0 l 176 694 l 333 694 l 361 638 l 465 694 l 606 694 l 589 532 m 521 819 l 257 819 l 138 1025 l 297 1025 l 399 914 l 521 1025 l 681 1025 l 521 819 z "},"Š":{"ha":910,"x_min":113,"x_max":885,"o":"m 169 493 l 211 886 l 382 979 l 733 979 l 885 886 l 865 701 l 671 701 l 682 813 l 397 813 l 372 581 l 690 581 l 842 488 l 800 86 l 629 -7 l 264 -7 l 113 86 l 132 271 l 326 271 l 315 160 l 614 160 l 639 400 l 321 400 l 169 493 m 672 1090 l 408 1090 l 289 1296 l 449 1296 l 550 1185 l 672 1296 l 832 1296 l 672 1090 z "},"š":{"ha":767,"x_min":104,"x_max":769,"o":"m 689 342 l 664 93 l 493 0 l 104 0 l 121 163 l 481 163 l 492 269 l 293 269 l 142 363 l 167 601 l 338 694 l 713 694 l 696 532 l 350 532 l 339 435 l 538 435 l 689 342 m 610 819 l 346 819 l 226 1025 l 386 1025 l 488 914 l 610 1025 l 769 1025 l 610 819 z "},"Ÿ":{"ha":863,"x_min":122,"x_max":943,"o":"m 333 0 l 376 415 l 122 972 l 333 972 l 493 608 l 496 608 l 732 972 l 943 972 l 571 414 l 528 0 l 333 0 m 264 1090 l 283 1278 l 471 1278 l 451 1090 l 264 1090 m 596 1090 l 615 1278 l 803 1278 l 783 1090 l 596 1090 z "},"Ž":{"ha":826,"x_min":63,"x_max":851,"o":"m 174 806 l 192 972 l 851 972 l 839 847 l 329 169 l 329 167 l 767 167 l 750 0 l 63 0 l 75 125 l 583 803 l 583 806 l 174 806 m 658 1090 l 394 1090 l 275 1296 l 435 1296 l 536 1185 l 658 1296 l 818 1296 l 658 1090 z "},"ž":{"ha":661,"x_min":49,"x_max":719,"o":"m 63 133 l 404 529 l 404 532 l 118 532 l 135 694 l 671 694 l 657 561 l 315 165 l 315 163 l 615 163 l 599 0 l 49 0 l 63 133 m 560 819 l 296 819 l 176 1025 l 336 1025 l 438 914 l 560 1025 l 719 1025 l 560 819 z "},"ƒ":{"ha":568,"x_min":-4,"x_max":625,"o":"m 164 -114 l 232 532 l 104 532 l 121 694 l 249 694 l 272 921 l 443 1014 l 625 1014 l 608 851 l 456 851 l 439 694 l 592 694 l 575 532 l 422 532 l 347 -183 l 176 -276 l -4 -276 l 11 -114 l 164 -114 z "},"ˆ":{"ha":738,"x_min":183,"x_max":726,"o":"m 343 1025 l 607 1025 l 726 819 l 567 819 l 465 931 l 343 819 l 183 819 l 343 1025 z "},"ˇ":{"ha":738,"x_min":206,"x_max":749,"o":"m 589 819 l 325 819 l 206 1025 l 365 1025 l 467 914 l 589 1025 l 749 1025 l 589 819 z "},"˘":{"ha":735,"x_min":232,"x_max":703,"o":"m 557 1050 l 703 1050 l 683 871 l 563 806 l 339 806 l 232 871 l 251 1050 l 397 1050 l 383 924 l 543 924 l 557 1050 z "},"˙":{"ha":486,"x_min":197,"x_max":489,"o":"m 197 821 l 225 1085 l 489 1085 l 461 821 l 197 821 z "},"˚":{"ha":735,"x_min":231,"x_max":713,"o":"m 682 857 l 561 792 l 338 792 l 231 857 l 261 1147 l 382 1213 l 606 1213 l 713 1147 l 682 857 m 400 1081 l 383 924 l 543 924 l 560 1081 l 400 1081 z "},"˛":{"ha":722,"x_min":200,"x_max":482,"o":"m 371 0 l 353 -161 l 482 -161 l 468 -296 l 351 -296 l 200 -203 l 222 0 l 371 0 z "},"˜":{"ha":703,"x_min":182,"x_max":717,"o":"m 336 926 l 331 926 l 318 813 l 182 813 l 200 985 l 339 1061 l 378 1061 l 563 947 l 568 947 l 581 1061 l 717 1061 l 699 889 l 560 813 l 521 813 l 336 926 z "},"˝":{"ha":806,"x_min":178,"x_max":867,"o":"m 178 819 l 326 997 l 563 997 l 344 819 l 178 819 m 482 819 l 631 997 l 867 997 l 649 819 l 482 819 z "},"–":{"ha":981,"x_min":118,"x_max":938,"o":"m 118 275 l 138 451 l 938 451 l 918 275 l 118 275 z "},"—":{"ha":1367,"x_min":118,"x_max":1324,"o":"m 118 275 l 138 451 l 1324 451 l 1304 275 l 118 275 z "},"‘":{"ha":500,"x_min":167,"x_max":488,"o":"m 488 1014 l 431 472 l 167 472 l 179 586 l 374 1014 l 488 1014 z "},"’":{"ha":500,"x_min":167,"x_max":488,"o":"m 167 472 l 224 1014 l 488 1014 l 476 900 l 281 472 l 167 472 z "},"‚":{"ha":528,"x_min":101,"x_max":422,"o":"m 101 -278 l 158 264 l 422 264 l 411 150 l 215 -278 l 101 -278 z "},"“":{"ha":889,"x_min":167,"x_max":876,"o":"m 876 1014 l 819 472 l 556 472 l 568 586 l 763 1014 l 876 1014 m 488 1014 l 431 472 l 167 472 l 179 586 l 374 1014 l 488 1014 z "},"”":{"ha":889,"x_min":167,"x_max":876,"o":"m 167 472 l 224 1014 l 488 1014 l 476 900 l 281 472 l 167 472 m 556 472 l 613 1014 l 876 1014 l 865 900 l 669 472 l 556 472 z "},"„":{"ha":917,"x_min":101,"x_max":811,"o":"m 101 -278 l 158 264 l 422 264 l 411 150 l 215 -278 l 101 -278 m 490 -278 l 547 264 l 811 264 l 800 150 l 604 -278 l 490 -278 z "},"†":{"ha":851,"x_min":136,"x_max":853,"o":"m 560 589 l 482 -278 l 308 -278 l 414 589 l 136 575 l 154 749 l 429 735 l 444 1015 l 618 1015 l 575 735 l 853 749 l 835 575 l 560 589 z "},"‡":{"ha":851,"x_min":75,"x_max":853,"o":"m 546 369 l 514 149 l 792 163 l 774 -11 l 499 3 l 482 -278 l 308 -278 l 353 3 l 75 -11 l 93 163 l 368 149 l 381 369 l 414 589 l 136 575 l 154 749 l 429 735 l 444 1015 l 618 1015 l 575 735 l 853 749 l 835 575 l 560 589 l 546 369 z "},"•":{"ha":792,"x_min":164,"x_max":728,"o":"m 692 311 l 521 218 l 315 218 l 164 311 l 200 653 l 371 746 l 576 746 l 728 653 l 692 311 z "},"…":{"ha":1447,"x_min":132,"x_max":1342,"o":"m 132 0 l 158 264 l 422 264 l 396 0 l 132 0 m 592 0 l 618 264 l 882 264 l 856 0 l 592 0 m 1051 0 l 1078 264 l 1342 264 l 1315 0 l 1051 0 z "},"‰":{"ha":1953,"x_min":165,"x_max":1931,"o":"m 672 589 l 501 496 l 317 496 l 165 589 l 197 893 l 368 986 l 553 986 l 704 893 l 672 589 m 358 832 l 340 650 l 511 650 l 529 832 l 358 832 m 1064 986 l 1244 986 l 426 -14 l 246 -14 l 1064 986 m 819 383 l 990 476 l 1175 476 l 1326 383 l 1293 79 l 1122 -14 l 938 -14 l 786 79 l 819 383 m 1132 140 l 1151 322 l 981 322 l 961 140 l 1132 140 m 1424 383 l 1594 476 l 1779 476 l 1931 383 l 1897 79 l 1726 -14 l 1542 -14 l 1390 79 l 1424 383 m 1736 140 l 1756 322 l 1585 322 l 1565 140 l 1736 140 z "},"‹":{"ha":597,"x_min":144,"x_max":551,"o":"m 499 190 l 479 0 l 144 264 l 163 433 l 551 697 l 532 507 l 289 350 l 289 349 l 499 190 z "},"›":{"ha":597,"x_min":118,"x_max":524,"o":"m 118 0 l 138 190 l 381 349 l 381 350 l 171 507 l 190 697 l 524 433 l 506 264 l 118 0 z "},"⁄":{"ha":907,"x_min":4,"x_max":1003,"o":"m 822 986 l 1003 986 l 185 -14 l 4 -14 l 822 986 z "},"€":{"ha":950,"x_min":68,"x_max":939,"o":"m 700 654 l 611 524 l 390 524 l 382 449 l 560 449 l 472 318 l 369 318 l 353 160 l 668 160 l 681 285 l 875 285 l 854 86 l 683 -7 l 301 -7 l 150 86 l 175 318 l 68 318 l 81 449 l 188 449 l 196 524 l 89 524 l 103 654 l 210 654 l 235 886 l 406 979 l 788 979 l 939 886 l 918 688 l 724 688 l 736 813 l 421 813 l 404 654 l 700 654 z "},"™":{"ha":1182,"x_min":179,"x_max":1165,"o":"m 989 453 l 1014 690 l 1011 690 l 890 453 l 785 453 l 717 690 l 714 690 l 689 453 l 565 453 l 619 972 l 765 972 l 860 651 l 863 651 l 1021 972 l 1165 972 l 1111 453 l 989 453 m 433 849 l 392 453 l 267 453 l 308 849 l 179 849 l 192 972 l 574 972 l 561 849 l 433 849 z "},"∂":{"ha":896,"x_min":126,"x_max":871,"o":"m 668 813 l 364 813 l 382 979 l 719 979 l 871 886 l 786 86 l 615 -7 l 278 -7 l 126 86 l 168 483 l 339 576 l 544 576 l 638 519 l 668 813 m 600 160 l 626 410 l 356 410 l 329 160 l 600 160 z "},"−":{"ha":847,"x_min":90,"x_max":832,"o":"m 832 454 l 813 268 l 90 268 l 110 454 l 832 454 z "},"∞":{"ha":1250,"x_min":142,"x_max":1197,"o":"m 369 553 l 344 310 l 560 310 l 585 553 l 369 553 m 779 553 l 754 310 l 969 310 l 994 553 l 779 553 m 1156 236 l 985 143 l 800 143 l 649 236 l 478 143 l 293 143 l 142 236 l 183 626 l 354 719 l 539 719 l 690 626 l 861 719 l 1046 719 l 1197 626 l 1156 236 z "},"≈":{"ha":1017,"x_min":122,"x_max":965,"o":"m 400 156 l 296 156 l 285 42 l 122 42 l 142 225 l 313 318 l 469 318 l 653 204 l 757 204 l 769 318 l 932 318 l 913 135 l 742 42 l 585 42 l 400 156 m 435 483 l 331 483 l 318 369 l 156 369 l 175 553 l 346 646 l 503 646 l 688 532 l 792 532 l 803 646 l 965 646 l 946 463 l 775 369 l 618 369 l 435 483 z "},"≠":{"ha":958,"x_min":115,"x_max":914,"o":"m 901 592 l 883 419 l 656 419 l 526 275 l 868 275 l 850 103 l 374 103 l 268 -15 l 115 -15 l 221 103 l 128 103 l 146 275 l 374 275 l 503 419 l 161 419 l 179 592 l 656 592 l 761 710 l 914 710 l 808 592 l 901 592 z "},"≤":{"ha":958,"x_min":118,"x_max":924,"o":"m 924 804 l 906 626 l 397 515 l 397 513 l 882 401 l 863 224 l 160 404 l 183 624 l 924 804 m 858 172 l 840 0 l 118 0 l 136 172 l 858 172 z "},"≥":{"ha":958,"x_min":118,"x_max":906,"o":"m 183 626 l 201 804 l 906 624 l 882 404 l 140 224 l 160 401 l 667 513 l 667 515 l 183 626 m 118 0 l 136 172 l 858 172 l 840 0 l 118 0 z "},"":{"ha":757,"x_min":85,"x_max":715,"o":"m 294 274 l 282 153 l 478 153 l 490 274 l 294 274 m 236 -7 l 85 86 l 110 326 l 281 419 l 506 419 l 518 532 l 201 532 l 218 694 l 564 694 l 715 601 l 651 -7 l 560 -7 l 467 50 l 363 -7 l 236 -7 z "},"":{"ha":813,"x_min":56,"x_max":808,"o":"m 56 -192 l 65 -94 l 238 0 l 111 78 l 125 203 l 229 260 l 136 317 l 167 601 l 338 694 l 808 694 l 799 606 l 665 532 l 744 482 l 729 332 l 558 239 l 319 239 l 310 149 l 590 149 l 742 56 l 715 -192 l 544 -285 l 207 -285 l 56 -192 m 546 0 l 267 0 l 253 -125 l 532 -125 l 546 0 m 350 539 l 335 394 l 544 394 l 560 539 l 350 539 z "},"":{"ha":399,"x_min":104,"x_max":400,"o":"m 294 0 l 104 0 l 210 1014 l 400 1014 l 294 0 z "},"":{"ha":399,"x_min":-64,"x_max":367,"o":"m 367 694 l 275 -185 l 103 -278 l -64 -278 l -46 -115 l 92 -115 l 176 694 l 367 694 z "},"":{"ha":489,"x_min":139,"x_max":394,"o":"m 139 -510 l 183 -76 l 394 -76 l 385 -168 l 231 -510 l 139 -510 z "},"":{"ha":1244,"x_min":111,"x_max":1133,"o":"m 903 71 q 621 -12 769 -12 q 260 138 410 -12 q 111 501 111 288 q 172 742 111 636 q 299 849 232 849 q 365 778 365 849 q 324 551 365 732 q 283 368 283 371 q 308 353 283 353 q 387 365 333 353 q 446 389 440 378 q 467 483 446 392 q 500 633 488 575 q 528 823 528 774 q 483 901 528 872 q 371 929 439 929 l 344 926 l 342 931 q 621 1014 472 1014 q 984 864 835 1014 q 1133 500 1133 714 q 1073 259 1133 365 q 946 153 1013 153 q 879 224 879 153 q 920 450 879 269 q 961 632 961 631 q 936 649 961 649 q 858 636 911 649 q 799 613 804 624 q 778 518 799 610 q 744 368 757 426 q 717 178 717 228 q 761 101 717 129 q 874 72 806 72 l 900 74 l 903 71 m 661 325 q 710 542 679 399 q 740 698 740 686 q 716 710 740 710 q 647 700 692 710 q 583 676 601 690 q 535 459 565 603 q 504 303 504 315 q 528 290 504 290 q 597 301 551 290 q 661 325 643 311 z "},"":{"ha":1192,"x_min":111,"x_max":1081,"o":"m 214 149 q 111 488 111 326 q 185 753 111 649 q 388 858 260 858 q 510 838 436 858 q 609 817 583 817 q 706 840 635 817 q 826 864 776 864 q 975 819 910 864 q 1047 750 1017 788 q 953 646 985 696 q 922 516 922 596 q 969 368 922 436 q 1081 281 1017 300 q 994 107 1051 192 q 815 -29 904 -29 q 719 -7 779 -29 q 616 15 660 15 q 514 -8 572 15 q 422 -32 456 -32 q 214 149 315 -32 m 818 1097 q 733 906 818 990 q 673 861 700 872 q 586 844 646 850 q 814 1126 589 1074 q 818 1097 818 1114 z "},"ﬁ":{"ha":967,"x_min":104,"x_max":975,"o":"m 104 532 l 121 694 l 249 694 l 272 921 l 443 1014 l 975 1014 l 958 851 l 456 851 l 439 694 l 633 694 l 617 532 l 422 532 l 367 0 l 176 0 l 232 532 l 104 532 m 935 694 l 863 0 l 672 0 l 744 694 l 935 694 z "},"ﬂ":{"ha":1022,"x_min":104,"x_max":1018,"o":"m 833 0 l 682 93 l 761 851 l 456 851 l 439 694 l 633 694 l 617 532 l 422 532 l 367 0 l 176 0 l 232 532 l 104 532 l 121 694 l 249 694 l 272 921 l 443 1014 l 968 1014 l 879 163 l 1018 163 l 1001 0 l 833 0 z "},"ﬃ":{"ha":1535,"x_min":104,"x_max":1543,"o":"m 422 532 l 367 0 l 176 0 l 232 532 l 104 532 l 121 694 l 249 694 l 272 921 l 443 1014 l 694 1014 l 678 851 l 456 851 l 439 694 l 789 694 l 813 921 l 983 1014 l 1543 1014 l 1526 851 l 996 851 l 979 694 l 1201 694 l 1185 532 l 963 532 l 907 0 l 717 0 l 772 532 l 422 532 m 1503 694 l 1431 0 l 1240 0 l 1313 694 l 1503 694 z "},"ﬄ":{"ha":1590,"x_min":104,"x_max":1586,"o":"m 1401 0 l 1250 93 l 1329 851 l 1024 851 l 1007 694 l 1188 694 l 1171 532 l 990 532 l 935 0 l 744 0 l 800 532 l 422 532 l 367 0 l 176 0 l 232 532 l 104 532 l 121 694 l 249 694 l 272 921 l 443 1014 l 708 1014 l 692 851 l 456 851 l 439 694 l 817 694 l 840 921 l 1011 1014 l 1536 1014 l 1447 163 l 1586 163 l 1569 0 l 1401 0 z "},"ﬆ":{"ha":1306,"x_min":104,"x_max":1301,"o":"m 689 342 l 664 93 l 493 0 l 104 0 l 121 163 l 481 163 l 492 269 l 293 269 l 142 363 l 167 601 l 338 694 l 958 694 l 971 811 l 1172 921 l 1149 694 l 1301 694 l 1285 532 l 1132 532 l 1093 163 l 1246 163 l 1229 0 l 1047 0 l 896 93 l 942 532 l 350 532 l 339 435 l 538 435 l 689 342 z "},"﬇":{"ha":967,"x_min":104,"x_max":975,"o":"m 935 694 l 843 -185 l 671 -278 l 503 -278 l 521 -115 l 660 -115 l 744 694 l 935 694 m 104 532 l 121 694 l 249 694 l 272 921 l 443 1014 l 975 1014 l 958 851 l 456 851 l 439 694 l 592 694 l 575 532 l 422 532 l 367 0 l 176 0 l 232 532 l 104 532 z "},"﬈":{"ha":1261,"x_min":114,"x_max":1257,"o":"m 350 532 l 311 163 l 656 163 l 639 0 l 265 0 l 114 93 l 167 601 l 338 694 l 914 694 l 926 811 l 1128 921 l 1104 694 l 1257 694 l 1240 532 l 1088 532 l 1049 163 l 1201 163 l 1185 0 l 1003 0 l 851 93 l 897 532 l 350 532 z "}}}
